<?xml version="1.0" encoding="UTF-8" standalone="no"?>
<svg
   xmlns:dc="http://purl.org/dc/elements/1.1/"
   xmlns:cc="http://creativecommons.org/ns#"
   xmlns:rdf="http://www.w3.org/1999/02/22-rdf-syntax-ns#"
   xmlns:svg="http://www.w3.org/2000/svg"
   xmlns="http://www.w3.org/2000/svg"
   version="1.0"
   id="svg2"
   height="756.35999"
   width="691.09003">
  <defs
     id="defs4" />
  <metadata
     id="metadata7">
    <rdf:RDF>
      <cc:Work
         rdf:about="">
        <dc:format>image/svg+xml</dc:format>
        <dc:type
           rdf:resource="http://purl.org/dc/dcmitype/StillImage" />
        <dc:title></dc:title>
      </cc:Work>
    </rdf:RDF>
  </metadata>
  <g
     style="display:inline"
     id="layer1">
    <path
       transform="translate(-31.404099,-87.931477)"
       d="M 671.42856 545.2193 A 294.28571 130 0 1 1  82.857147,545.2193 A 294.28571 130 0 1 1  671.42856 545.2193 z"
       id="path5097"
       style="fill:none;fill-opacity:1;stroke:#000000;stroke-width:1.5;stroke-miterlimit:4;stroke-dasharray:12,12;stroke-dashoffset:15;stroke-opacity:1" />
    <g
       transform="translate(-31.404099,-87.931477)"
       id="g9980">
      <path
         d="m 308.57143,297.36218 a 40.714287,40.714287 0 0 1 -40.71428,40.71429 40.714287,40.714287 0 0 1 -40.71429,-40.71429 40.714287,40.714287 0 0 1 40.71429,-40.71428 40.714287,40.714287 0 0 1 40.71428,40.71428 z"
         id="path6264"
         style="fill:#ff0000;fill-rule:evenodd;stroke:#000000;stroke-width:1px;stroke-linecap:butt;stroke-linejoin:miter;stroke-opacity:1"
         transform="matrix(0.9769957,0.2132597,-0.2132597,0.9769957,99.095439,74.972545)" />
      <path
         style="fill:none;fill-rule:evenodd;stroke:#000000;stroke-width:7.99800014;stroke-linecap:round;stroke-linejoin:miter;stroke-miterlimit:2.0999999;stroke-dasharray:none;stroke-opacity:1"
         d="M 307.32698,439.02675 L 437.38213,636.74702"
         id="path9135" />
      <path
         transform="matrix(0.9769957,0.2132597,-0.2132597,0.9769957,262.91613,323.03409)"
         d="m 308.57143,297.36218 a 40.714287,40.714287 0 0 1 -40.71428,40.71429 40.714287,40.714287 0 0 1 -40.71429,-40.71429 40.714287,40.714287 0 0 1 40.71429,-40.71428 40.714287,40.714287 0 0 1 40.71428,40.71428 z"
         id="path7287"
         style="fill:#ff0000;fill-rule:evenodd;stroke:#000000;stroke-width:1px;stroke-linecap:butt;stroke-linejoin:miter;stroke-opacity:1" />
    </g>
    <path
       transform="translate(-144.26124,-157.93148)"
       d="M 479.99998 741.64789 A 73.571426 73.571426 0 1 1  332.85713,741.64789 A 73.571426 73.571426 0 1 1  479.99998 741.64789 z"
       id="path9880"
       style="fill:#a2a0a2;fill-opacity:1;stroke:#000000;stroke-opacity:1;opacity:1;color:#000000;fill-rule:nonzero;stroke-width:1;stroke-linecap:butt;stroke-linejoin:miter;marker:none;marker-start:none;marker-mid:none;marker-end:none;stroke-miterlimit:4;stroke-dasharray:none;stroke-dashoffset:0;visibility:visible;display:inline;overflow:visible;enable-background:accumulate" />
    <path
       transform="translate(20.738772,-415.07434)"
       style="opacity:1;fill:#a2a0a2;fill-opacity:1;stroke:#000000;stroke-width:1;stroke-miterlimit:4;stroke-dasharray:none;stroke-opacity:1"
       id="path9902"
       d="M 479.99998 741.64789 A 73.571426 73.571426 0 1 1  332.85713,741.64789 A 73.571426 73.571426 0 1 1  479.99998 741.64789 z" />
    <path
       id="path9940"
       d="M 345.21536,456.41835 C 345.21536,330.22787 345.4852,126.75165 344.92051,126.67522"
       style="fill:none;fill-rule:evenodd;stroke:#000000;stroke-width:3;stroke-linecap:butt;stroke-linejoin:miter;stroke-miterlimit:4;stroke-dasharray:none;stroke-opacity:1" />
    <g
       transform="translate(-31.404099,-87.931477)"
       style="opacity:0.33888891"
       id="g9985">
      <path
         style="fill:#ff0000;fill-rule:evenodd;stroke:#000000;stroke-width:1px;stroke-linecap:butt;stroke-linejoin:miter;stroke-opacity:1"
         id="path8989"
         d="m 308.57143,297.36218 a 40.714287,40.714287 0 0 1 -40.71428,40.71429 40.714287,40.714287 0 0 1 -40.71429,-40.71429 40.714287,40.714287 0 0 1 40.71429,-40.71428 40.714287,40.714287 0 0 1 40.71428,40.71428 z"
         transform="matrix(0.9846996,0.1742608,-0.1742608,0.9846996,357.11687,306.26249)" />
      <path
         style="fill:#ff0000;fill-rule:evenodd;stroke:#000000;stroke-width:1px;stroke-linecap:butt;stroke-linejoin:miter;stroke-opacity:1"
         id="path8999"
         d="m 308.57143,297.36218 a 40.714287,40.714287 0 0 1 -40.71428,40.71429 40.714287,40.714287 0 0 1 -40.71429,-40.71429 40.714287,40.714287 0 0 1 40.71429,-40.71428 40.714287,40.714287 0 0 1 40.71428,40.71428 z"
         transform="matrix(0.9846996,0.1742608,-0.1742608,0.9846996,-21.454555,106.2625)" />
      <path
         style="fill:none;fill-rule:evenodd;stroke:#000000;stroke-width:7.9000001;stroke-linecap:round;stroke-linejoin:miter;stroke-miterlimit:4;stroke-dasharray:none;stroke-opacity:1"
         d="M 532.85714,623.79076 L 207.14286,458.07646"
         id="path9006" />
    </g>
    <g
       transform="translate(-35.430813,-47.664331)"
       id="g3233">
      <path
         id="path6104"
         d="M -62.202724,205.4741 L 208.77849,202.13825 L 184.66268,299.26318 L -83.304054,299.26318 C -42.999318,243.52584 -129.84077,291.15502 -62.202724,205.4741 z "
         style="fill:none;stroke:none;stroke-width:5.86022329;stroke-miterlimit:4;stroke-opacity:1"
         transform="matrix(1,0,0.9036611,0.4282484,0,0)" />
      <path
         id="path6116"
         d="M -62.202724,205.4741 L 208.77849,202.13825 L 184.66268,299.26318 L -83.304054,299.26318 M -83.304054,299.26318 C -42.999318,243.52584 -129.84077,291.15502 -62.202724,205.4741"
         style="fill:none;stroke:none;stroke-width:5.86022329;stroke-miterlimit:4;stroke-opacity:1"
         transform="matrix(1,0,0.9036611,0.4282484,0,0)" />
      <path
         style="fill:none;fill-rule:evenodd;stroke:#000000;stroke-width:1px;stroke-linecap:butt;stroke-linejoin:miter;stroke-opacity:1"
         d="M 377.14286,106.6479 L 377.14286,106.6479 z "
         id="path7097" />
      <path
         style="fill:none;fill-rule:evenodd;stroke:#000000;stroke-width:7.30000019;stroke-linecap:butt;stroke-linejoin:miter;stroke-miterlimit:4;stroke-dasharray:none;stroke-opacity:1"
         d="M 377.14286,106.6479 L 377.14286,106.6479 z "
         id="path7099" />
      <path
         style="fill:none;stroke:#000000;stroke-width:6.13500023;stroke-linejoin:round;stroke-miterlimit:4;stroke-dasharray:none;stroke-opacity:1"
         d="M 143.17729,92.530082 L 404.93443,92.347441 L 465.69561,135.86839 L 206.40197,135.86839"
         id="path3074" />
      <path
         style="fill:none;stroke:#000000;stroke-width:6.13500023;stroke-miterlimit:4;stroke-dasharray:none;stroke-opacity:1"
         d="M 205.79716,174.03964 L 465.45567,174.3219 L 465.45567,134.94231"
         id="path3072" />
      <path
         style="fill:#cecece;fill-opacity:1;stroke:#000000;stroke-width:6.13500023;stroke-linejoin:round;stroke-miterlimit:4;stroke-dasharray:none;stroke-opacity:1"
         d="M 142.08795,91.976039 C 148.87806,122.31335 196.00344,113.63035 206.22674,134.94231 L 205.79716,174.43881 C 186.82467,138.88727 160.31111,160.49719 141.40654,129.66211 L 142.08795,91.976039 z "
         id="rect16667" />
      <path
         style="fill:none;fill-rule:evenodd;stroke:#000000;stroke-width:1px;stroke-linecap:butt;stroke-linejoin:miter;stroke-opacity:1"
         d="M 378.51117,115.14436 C 378.51117,115.14436 378.51117,115.14436 378.51117,115.14436 z "
         id="path4053" />
      <path
         style="fill:none;fill-rule:evenodd;stroke:#000000;stroke-width:7.9;stroke-linecap:butt;stroke-linejoin:miter;stroke-miterlimit:4;stroke-dasharray:none;stroke-opacity:1"
         d="M 374.32396,114.0173 L 383.22178,114.5407"
         id="path4065" />
    </g>
  </g>
  <g
     style="display:inline"
     id="layer2">
    <text
       id="text2211"
       y="538.0437"
       x="415.86298"
       style="font-size:48px;font-style:italic;font-variant:normal;font-weight:normal;font-stretch:normal;text-align:center;line-height:125%;writing-mode:lr-tb;text-anchor:middle;fill:#000000;fill-opacity:1;stroke:none;stroke-width:1px;stroke-linecap:butt;stroke-linejoin:miter;stroke-opacity:1;font-family:Arial"
       xml:space="preserve"><tspan
         y="538.0437"
         x="415.86298"
         id="tspan2213">θ</tspan></text>
    <path
       d="M 506.77601,566.61356 L 470.80398,574.65727 L 482.79465,564.07055 M 470.80398,574.99798 L 493.89475,577.88169"
       style="fill:none;fill-rule:evenodd;stroke:#0000ff;stroke-width:3;stroke-linecap:butt;stroke-linejoin:miter;stroke-miterlimit:4;stroke-dasharray:none;stroke-opacity:1"
       id="path3188" />
    <path
       d="M 198.23514,344.67731 L 229.99202,337.06411 L 204.97862,334.79669 M 230.3915,337.06411 L 215.7054,347.0274"
       style="opacity:1;color:#000000;fill:none;fill-opacity:1;fill-rule:evenodd;stroke:#0000ff;stroke-width:3;stroke-linecap:butt;stroke-linejoin:miter;marker:none;marker-start:none;marker-mid:none;marker-end:none;stroke-miterlimit:4;stroke-dasharray:none;stroke-dashoffset:0;stroke-opacity:1;visibility:visible;display:inline;overflow:visible;enable-background:accumulate"
       id="path3195" />
    <path
       d="M 262.54607,669.47386 L 262.54607,721.45476 M 429.65472,643.29154 L 429.65472,722.82783 M 379.3208,695.6475 L 429.65472,695.6475 M 262.54607,695.6475 L 315.13762,695.6475"
       style="fill:none;fill-rule:evenodd;stroke:#000000;stroke-width:3;stroke-linecap:butt;stroke-linejoin:miter;stroke-miterlimit:4;stroke-dasharray:none;stroke-opacity:1"
       id="path4071" />
    <path
       d="M 268.87437,414.87011 C 281.93301,409.15861 296.82463,407.86662 308.13848,405.6447 M 297.98566,414.46083 L 309.82889,404.83821 L 287.62284,401.87741"
       style="opacity:1;color:#000000;fill:none;fill-opacity:1;fill-rule:evenodd;stroke:#0000ff;stroke-width:3;stroke-linecap:butt;stroke-linejoin:miter;marker:none;marker-start:none;marker-mid:none;marker-end:none;stroke-miterlimit:4;stroke-dasharray:none;stroke-dashoffset:0;stroke-opacity:1;visibility:visible;display:inline;overflow:visible;enable-background:accumulate"
       id="path3246" />
    <path
       id="path7068"
       d="M 367.42796,302.04736 C 370.18689,287.86884 381.10626,274.70742 406.15968,263.31564 L 418.72132,267.50285 C 393.07845,280.76236 380.7956,294.02187 377.46437,307.28138 L 367.42796,302.04736 z "
       style="fill:#ffffff;fill-opacity:0.50993377;fill-rule:evenodd;stroke:#000000;stroke-width:0;stroke-linecap:butt;stroke-linejoin:miter;stroke-miterlimit:4;stroke-dasharray:none;stroke-opacity:1" />
    <path
       style="fill:#ffffff;fill-opacity:0.50993377;fill-rule:evenodd;stroke:#000000;stroke-width:0;stroke-linecap:butt;stroke-linejoin:miter;stroke-miterlimit:4;stroke-dasharray:none;stroke-opacity:1"
       d="M 200.14237,561.11796 C 202.9013,546.93944 213.82067,533.77802 238.87409,522.38624 L 251.43573,526.57345 C 225.79286,539.83296 213.51001,553.09247 210.17878,566.35198 L 200.14237,561.11796 z "
       id="path7070" />
    <path
       style="fill:#ffffff;fill-opacity:0.78807942;fill-rule:evenodd;stroke:#000000;stroke-width:0;stroke-linecap:butt;stroke-linejoin:miter;stroke-miterlimit:4;stroke-dasharray:none;stroke-opacity:1"
       d="M 232.71125,324.5354 C 234.51466,315.13104 241.65223,306.4013 258.0287,298.84533 L 266.23977,301.62263 C 249.478,310.41743 241.44917,319.21223 239.27167,328.00704 L 232.71125,324.5354 z "
       id="path7072" />
    <path
       id="path7074"
       d="M 395.55563,574.72357 C 397.35904,565.31921 404.49661,556.58947 420.87308,549.0335 L 429.08415,551.8108 C 412.32238,560.6056 404.29355,569.4004 402.11605,578.19521 L 395.55563,574.72357 z "
       style="fill:#ffffff;fill-opacity:0.78807942;fill-rule:evenodd;stroke:#000000;stroke-width:0;stroke-linecap:butt;stroke-linejoin:miter;stroke-miterlimit:4;stroke-dasharray:none;stroke-opacity:1" />
    <text
       id="text2237"
       y="214.99184"
       x="335.43512"
       style="font-size:48px;font-style:normal;font-variant:normal;font-weight:normal;font-stretch:normal;text-align:end;line-height:100%;writing-mode:lr-tb;text-anchor:end;font-family:Arial"
       xml:space="preserve"><tspan
         dx="0 -5.9216137"
         style="letter-spacing:0"
         y="214.99184"
         x="335.43512"
         id="tspan2291">Torsion wire</tspan></text>
    <text
       id="text2243"
       y="342.28931"
       x="246.43752"
       style="font-size:48px;font-style:italic;font-variant:normal;font-weight:normal;font-stretch:normal;text-align:start;line-height:125%;writing-mode:lr-tb;text-anchor:start;font-family:Arial"
       xml:space="preserve"><tspan
         y="342.28931"
         x="246.43752"
         id="tspan2245"><tspan
           id="tspan2247"
           y="342.28931"
           x="246.43752">m</tspan></tspan></text>
    <text
       id="text2249"
       y="255.13875"
       x="306.5213"
       style="font-size:48px;font-style:italic;font-variant:normal;font-weight:normal;font-stretch:normal;text-align:start;line-height:125%;writing-mode:lr-tb;text-anchor:start;font-family:Arial"
       xml:space="preserve"><tspan
         y="255.13875"
         x="306.5213"
         id="tspan2251"><tspan
           id="tspan2253"
           y="255.13875"
           x="306.5213">κ</tspan></tspan></text>
    <text
       id="text2255"
       y="629.19318"
       x="475.97089"
       style="font-size:48px;font-style:italic;font-variant:normal;font-weight:normal;font-stretch:normal;text-align:start;line-height:125%;writing-mode:lr-tb;text-anchor:start;fill:#000000;fill-opacity:1;font-family:Arial"
       xml:space="preserve"><tspan
         y="629.19318"
         x="475.97089"
         id="tspan2257"><tspan
           id="tspan2259"
           y="629.19318"
           x="475.97089">F</tspan></tspan></text>
    <text
       id="text2261"
       y="325.4939"
       x="193.19814"
       style="font-size:48px;font-style:italic;font-variant:normal;font-weight:normal;font-stretch:normal;text-align:start;line-height:125%;writing-mode:lr-tb;text-anchor:start;opacity:1;color:#000000;fill:#000000;fill-opacity:1;fill-rule:nonzero;stroke:none;stroke-width:1;stroke-linecap:butt;stroke-linejoin:miter;marker:none;marker-start:none;marker-mid:none;marker-end:none;stroke-miterlimit:4;stroke-dasharray:none;stroke-dashoffset:0;stroke-opacity:1;visibility:visible;display:inline;overflow:visible;enable-background:accumulate;font-family:Arial"
       xml:space="preserve"><tspan
         y="325.4939"
         x="193.19814"
         id="tspan2263"><tspan
           id="tspan2265"
           style="marker:none;marker-start:none;marker-mid:none;marker-end:none"
           y="325.4939"
           x="193.19814">F</tspan></tspan></text>
    <text
       id="text2267"
       y="341.28455"
       x="405.50189"
       style="font-size:48px;font-style:italic;font-variant:normal;font-weight:normal;font-stretch:normal;text-align:start;line-height:125%;writing-mode:lr-tb;text-anchor:start;font-family:Arial"
       xml:space="preserve"><tspan
         y="341.28455"
         x="405.50189"
         id="tspan2269"><tspan
           id="tspan2271"
           y="341.28455"
           x="405.50189">M</tspan></tspan></text>
    <text
       id="text2273"
       y="604.03473"
       x="242.41508"
       style="font-size:48px;font-style:italic;font-variant:normal;font-weight:normal;font-stretch:normal;text-align:start;line-height:125%;writing-mode:lr-tb;text-anchor:start;font-family:Arial"
       xml:space="preserve"><tspan
         y="604.03473"
         x="242.41508"
         id="tspan2275"><tspan
           id="tspan2277"
           y="604.03473"
           x="242.41508">M</tspan></tspan></text>
    <text
       id="text2279"
       y="598.99017"
       x="414.54889"
       style="font-size:48px;font-style:italic;font-variant:normal;font-weight:normal;font-stretch:normal;text-align:start;line-height:125%;writing-mode:lr-tb;text-anchor:start;font-family:Arial"
       xml:space="preserve"><tspan
         y="598.99017"
         x="414.54889"
         id="tspan2281"><tspan
           id="tspan2283"
           y="598.99017"
           x="414.54889">m</tspan></tspan></text>
    <text
       id="text2285"
       y="706.91931"
       x="345.51334"
       style="font-size:48px;font-style:italic;font-variant:normal;font-weight:normal;font-stretch:normal;text-align:start;line-height:125%;writing-mode:lr-tb;text-anchor:start;font-family:Arial"
       xml:space="preserve"><tspan
         y="706.91931"
         x="345.51334"
         id="tspan2287"><tspan
           id="tspan2289"
           y="706.91931"
           x="345.51334">r</tspan></tspan></text>
    <text
       transform="matrix(0.8946459,0.4377103,5.8605807e-3,1.120628,0,0)"
       id="text2231"
       y="299.75757"
       x="242.43567"
       style="font-size:48.00000381px;font-style:italic;font-variant:normal;font-weight:normal;font-stretch:normal;text-align:start;line-height:125%;writing-mode:lr-tb;text-anchor:start;font-family:Arial"
       xml:space="preserve"><tspan
         y="299.75757"
         x="242.43567"
         id="tspan2233"><tspan
           id="tspan2235"
           style="letter-spacing:2.46733928"
           y="299.75757"
           x="242.43567">L/2</tspan></tspan></text>
  </g>
</svg>
